<svg xmlns="http://www.w3.org/2000/svg" width="1600" height="1040" viewBox="0 0 1600 1040">
  <rect width="1600" height="1040" fill="#efe4cf"/>
  <rect x="28" y="28" width="1544" height="984" rx="24" fill="#f7f0e3" stroke="#372d22" stroke-width="3"/>
  <text x="64" y="84" fill="#2c241d" font-family="Georgia, serif" font-size="34">Bloodlines Bridge And Water Infrastructure Sheet</text>
  <text x="64" y="116" fill="#6e5a46" font-family="Arial, sans-serif" font-size="18">Stage: first_pass_concept | Review: placeholder_only | Focus: crossing logic, civic water support, and choke readability</text>

  <g font-family="Arial, sans-serif" font-size="16" fill="#47392c">
    <text x="92" y="170">Timber Frontier Bridge</text>
    <text x="612" y="170">Stone Civic Bridge</text>
    <text x="1128" y="170">Fortified Gate Bridge</text>
    <text x="92" y="572">Ruin-Span Salvage Bridge</text>
    <text x="612" y="572">Aqueduct And Water Works</text>
    <text x="1128" y="572">Dock And River Landing</text>
  </g>

  <g stroke="#b8a58d" stroke-width="2">
    <rect x="64" y="186" width="440" height="334" rx="18" fill="#fcf7ef"/>
    <rect x="580" y="186" width="440" height="334" rx="18" fill="#fcf7ef"/>
    <rect x="1096" y="186" width="440" height="334" rx="18" fill="#fcf7ef"/>
    <rect x="64" y="588" width="440" height="334" rx="18" fill="#fcf7ef"/>
    <rect x="580" y="588" width="440" height="334" rx="18" fill="#fcf7ef"/>
    <rect x="1096" y="588" width="440" height="334" rx="18" fill="#fcf7ef"/>
  </g>

  <g transform="translate(84 204)">
    <rect width="400" height="190" rx="14" fill="#a9c0c9"/>
    <path d="M0 64 C44 54 96 70 146 62 S254 48 320 58 S370 68 400 68 L400 190 L0 190 Z" fill="#6488a1"/>
    <path d="M26 112 L74 92 L126 112 L176 88 L230 110 L280 92 L334 112" fill="none" stroke="#7f6240" stroke-width="16" stroke-linecap="round"/>
    <path d="M42 110 L42 146 M90 96 L90 146 M138 110 L138 146 M192 92 L192 146 M246 110 L246 146 M294 96 L294 146 M342 110 L342 146" stroke="#5f4730" stroke-width="8"/>
    <text x="18" y="222" fill="#3f3328" font-family="Arial, sans-serif" font-size="15">The frontier bridge is direct, functional, and easy to read as a crossing lane.</text>
    <text x="18" y="246" fill="#695544" font-family="Arial, sans-serif" font-size="13">Keep support posts and deck width broad enough for minimap-scale comprehension.</text>
    <rect x="18" y="266" width="22" height="22" fill="#6488a1"/>
    <rect x="46" y="266" width="22" height="22" fill="#7f6240"/>
    <rect x="74" y="266" width="22" height="22" fill="#5f4730"/>
  </g>

  <g transform="translate(600 204)">
    <rect width="400" height="190" rx="14" fill="#a9c0c9"/>
    <path d="M0 64 C44 54 96 70 146 62 S254 48 320 58 S370 68 400 68 L400 190 L0 190 Z" fill="#6488a1"/>
    <path d="M40 116 Q112 78 200 78 Q286 78 360 116" fill="none" stroke="#8c7b67" stroke-width="22" stroke-linecap="round"/>
    <path d="M44 116 Q112 84 200 84 Q286 84 356 116" fill="none" stroke="#d7cec0" stroke-width="8" stroke-linecap="round"/>
    <rect x="82" y="96" width="18" height="20" fill="#8c7b67"/>
    <rect x="300" y="96" width="18" height="20" fill="#8c7b67"/>
    <text x="18" y="222" fill="#3f3328" font-family="Arial, sans-serif" font-size="15">Stone civic bridges need a clear arch read and orderly approach logic.</text>
    <text x="18" y="246" fill="#695544" font-family="Arial, sans-serif" font-size="13">They should feel permanent without becoming ornate skyline pieces.</text>
    <rect x="18" y="266" width="22" height="22" fill="#6488a1"/>
    <rect x="46" y="266" width="22" height="22" fill="#8c7b67"/>
    <rect x="74" y="266" width="22" height="22" fill="#d7cec0"/>
  </g>

  <g transform="translate(1116 204)">
    <rect width="400" height="190" rx="14" fill="#a9c0c9"/>
    <path d="M0 64 C44 54 96 70 146 62 S254 48 320 58 S370 68 400 68 L400 190 L0 190 Z" fill="#6488a1"/>
    <rect x="28" y="106" width="100" height="30" fill="#8c7b67" stroke="#5a4d40" stroke-width="4"/>
    <rect x="272" y="106" width="100" height="30" fill="#8c7b67" stroke="#5a4d40" stroke-width="4"/>
    <rect x="136" y="76" width="128" height="60" fill="#81715d" stroke="#5a4d40" stroke-width="4"/>
    <rect x="180" y="96" width="40" height="40" fill="#4b3e33"/>
    <text x="18" y="222" fill="#3f3328" font-family="Arial, sans-serif" font-size="15">Fortified bridges are crossing points first and choke bastions second.</text>
    <text x="18" y="246" fill="#695544" font-family="Arial, sans-serif" font-size="13">The player must instantly understand both passage and defensive control.</text>
    <rect x="18" y="266" width="22" height="22" fill="#6488a1"/>
    <rect x="46" y="266" width="22" height="22" fill="#81715d"/>
    <rect x="74" y="266" width="22" height="22" fill="#4b3e33"/>
  </g>

  <g transform="translate(84 606)">
    <rect width="400" height="190" rx="14" fill="#a9c0c9"/>
    <path d="M0 64 C44 54 96 70 146 62 S254 48 320 58 S370 68 400 68 L400 190 L0 190 Z" fill="#6488a1"/>
    <path d="M34 118 L88 98 L132 118 L178 92 L214 122 L260 100 L304 122 L350 108" fill="none" stroke="#7f6240" stroke-width="16" stroke-linecap="round"/>
    <path d="M168 102 L184 88 L202 102 L220 86 L238 104" fill="none" stroke="#8c7b67" stroke-width="12" stroke-linecap="round"/>
    <circle cx="186" cy="116" r="10" fill="#6d5e4c"/>
    <circle cx="230" cy="122" r="10" fill="#6d5e4c"/>
    <text x="18" y="222" fill="#3f3328" font-family="Arial, sans-serif" font-size="15">Salvage bridges need danger and improvisation without losing crossing clarity.</text>
    <text x="18" y="246" fill="#695544" font-family="Arial, sans-serif" font-size="13">Broken rhythm should read in one glance, not as visual noise.</text>
    <rect x="18" y="266" width="22" height="22" fill="#6488a1"/>
    <rect x="46" y="266" width="22" height="22" fill="#7f6240"/>
    <rect x="74" y="266" width="22" height="22" fill="#8c7b67"/>
  </g>

  <g transform="translate(600 606)">
    <rect width="400" height="190" rx="14" fill="#c7bfab"/>
    <path d="M0 92 C48 76 108 100 164 88 S274 62 342 76 S378 86 400 86 L400 190 L0 190 Z" fill="#95a58e"/>
    <path d="M38 90 L98 66 L162 78 L220 52 L278 68 L340 46" fill="none" stroke="#8c7b67" stroke-width="16" stroke-linecap="round"/>
    <path d="M52 92 L52 140 M112 72 L112 140 M170 80 L170 140 M228 54 L228 140 M288 70 L288 140 M344 48 L344 140" stroke="#6a5b49" stroke-width="8"/>
    <path d="M26 128 C62 116 96 126 132 118 S208 104 252 110 S314 126 368 120" fill="none" stroke="#afc9cf" stroke-width="12" stroke-linecap="round"/>
    <text x="18" y="222" fill="#3f3328" font-family="Arial, sans-serif" font-size="15">Aqueduct and civic water works should advertise managed settlement support.</text>
    <text x="18" y="246" fill="#695544" font-family="Arial, sans-serif" font-size="13">Keep the water line and support rhythm readable from the RTS camera.</text>
    <rect x="18" y="266" width="22" height="22" fill="#8c7b67"/>
    <rect x="46" y="266" width="22" height="22" fill="#afc9cf"/>
    <rect x="74" y="266" width="22" height="22" fill="#6a5b49"/>
  </g>

  <g transform="translate(1116 606)">
    <rect width="400" height="190" rx="14" fill="#a9c0c9"/>
    <path d="M0 70 C40 58 94 78 148 68 S260 48 332 62 S374 72 400 70 L400 190 L0 190 Z" fill="#6488a1"/>
    <path d="M24 120 L84 120 L84 146 L24 146 Z" fill="#8c7b67" stroke="#5a4d40" stroke-width="4"/>
    <path d="M88 112 L140 112 L140 146 L88 146 Z" fill="#7f6240" stroke="#5a4d40" stroke-width="4"/>
    <path d="M144 104 L194 104 L194 146 L144 146 Z" fill="#8c7b67" stroke="#5a4d40" stroke-width="4"/>
    <path d="M202 112 L258 112 L258 146 L202 146 Z" fill="#7f6240" stroke="#5a4d40" stroke-width="4"/>
    <path d="M264 122 L324 122 L324 146 L264 146 Z" fill="#8c7b67" stroke="#5a4d40" stroke-width="4"/>
    <text x="18" y="222" fill="#3f3328" font-family="Arial, sans-serif" font-size="15">Docks and landings need obvious approach shelves and loading rhythm.</text>
    <text x="18" y="246" fill="#695544" font-family="Arial, sans-serif" font-size="13">This should feel like transport infrastructure, not just a pile of boards.</text>
    <rect x="18" y="266" width="22" height="22" fill="#6488a1"/>
    <rect x="46" y="266" width="22" height="22" fill="#8c7b67"/>
    <rect x="74" y="266" width="22" height="22" fill="#7f6240"/>
  </g>

  <text x="64" y="996" fill="#6a5845" font-family="Arial, sans-serif" font-size="15">Use with: map-and-terrain rules, environment manifest, and bridge framework for crossing clarity, choke visibility, and water-infrastructure identity. These remain concept placeholders for later blockout, prop kits, and biome integration.</text>
</svg>
