<svg xmlns="http://www.w3.org/2000/svg" width="1600" height="1040" viewBox="0 0 1600 1040">
  <rect width="1600" height="1040" fill="#ece0cb"/>
  <rect x="28" y="28" width="1544" height="984" rx="24" fill="#f7f0e3" stroke="#372d22" stroke-width="3"/>
  <text x="64" y="84" fill="#2c241d" font-family="Georgia, serif" font-size="34">Bloodlines House Overlay Support Structures Sheet</text>
  <text x="64" y="116" fill="#6c5a48" font-family="Arial, sans-serif" font-size="18">Stage: first_pass_concept | Review: placeholder_only | Focus: House trim, banners, and civic marks layered onto support silhouettes without breaking RTS function reads</text>

  <g font-family="Arial, sans-serif" font-size="16" fill="#47392c">
    <text x="92" y="170">Market Banner Overlay</text>
    <text x="612" y="170">Storehouse Ledger Front</text>
    <text x="1128" y="170">Granary House Mark</text>
    <text x="92" y="572">Housing Trim Bands</text>
    <text x="612" y="572">Well Capstone Markers</text>
    <text x="1128" y="572">Dock Signal Posts</text>
  </g>

  <g stroke="#b8a58d" stroke-width="2">
    <rect x="64" y="186" width="440" height="334" rx="18" fill="#fcf7ef"/>
    <rect x="580" y="186" width="440" height="334" rx="18" fill="#fcf7ef"/>
    <rect x="1096" y="186" width="440" height="334" rx="18" fill="#fcf7ef"/>
    <rect x="64" y="588" width="440" height="334" rx="18" fill="#fcf7ef"/>
    <rect x="580" y="588" width="440" height="334" rx="18" fill="#fcf7ef"/>
    <rect x="1096" y="588" width="440" height="334" rx="18" fill="#fcf7ef"/>
  </g>

  <g transform="translate(84 204)">
    <rect width="400" height="190" rx="14" fill="#ddd2c0"/>
    <rect x="62" y="92" width="272" height="50" fill="#c6b191" stroke="#7a674f" stroke-width="4"/>
    <polygon points="48,92 124,48 202,92" fill="#8b673f" stroke="#644924" stroke-width="4"/>
    <polygon points="196,92 274,48 348,92" fill="#7c5d39" stroke="#604322" stroke-width="4"/>
    <line x1="102" y1="42" x2="102" y2="92" stroke="#5c452b" stroke-width="6"/>
    <line x1="294" y1="42" x2="294" y2="92" stroke="#5c452b" stroke-width="6"/>
    <rect x="88" y="36" width="28" height="18" fill="#8d2030"/>
    <rect x="280" y="36" width="28" height="18" fill="#305e86"/>
    <path d="M0 162 L68 156 L154 164 L236 158 L324 166 L400 160 L400 190 L0 190 Z" fill="#8f7757"/>
    <text x="18" y="222" fill="#3f3328" font-family="Arial, sans-serif" font-size="13">House banners should claim the frontage without confusing the market read.</text>
    <text x="18" y="244" fill="#695544" font-family="Arial, sans-serif" font-size="11">Overlay trims belong on flags, beam ends, and awning cuts, not across the entire mass.</text>
    <rect x="18" y="266" width="22" height="22" fill="#8d2030"/>
    <rect x="46" y="266" width="22" height="22" fill="#305e86"/>
    <rect x="74" y="266" width="22" height="22" fill="#c6b191"/>
  </g>

  <g transform="translate(600 204)">
    <rect width="400" height="190" rx="14" fill="#ddd2c0"/>
    <rect x="44" y="92" width="286" height="54" fill="#a58e71" stroke="#675845" stroke-width="4"/>
    <polygon points="34,92 108,46 186,92" fill="#85623b" stroke="#644924" stroke-width="4"/>
    <polygon points="180,92 256,46 340,92" fill="#785735" stroke="#5c4023" stroke-width="4"/>
    <rect x="74" y="108" width="38" height="38" fill="#6e5847"/>
    <rect x="286" y="108" width="28" height="38" fill="#6e5847"/>
    <rect x="150" y="62" width="70" height="18" fill="#d9ccb1" stroke="#7a674f" stroke-width="3"/>
    <circle cx="158" cy="71" r="3" fill="#5b4633"/>
    <circle cx="172" cy="71" r="3" fill="#5b4633"/>
    <circle cx="186" cy="71" r="3" fill="#5b4633"/>
    <path d="M0 162 L72 154 L156 164 L232 158 L322 166 L400 160 L400 190 L0 190 Z" fill="#8f7757"/>
    <text x="18" y="222" fill="#3f3328" font-family="Arial, sans-serif" font-size="13">Ledger signs, seals, and trim plates should mark administration, not replace access logic.</text>
    <text x="18" y="244" fill="#695544" font-family="Arial, sans-serif" font-size="11">A storehouse still reads through doors, platform width, and cargo rhythm first.</text>
    <rect x="18" y="266" width="22" height="22" fill="#d9ccb1"/>
    <rect x="46" y="266" width="22" height="22" fill="#6e5847"/>
    <rect x="74" y="266" width="22" height="22" fill="#85623b"/>
  </g>

  <g transform="translate(1116 204)">
    <rect width="400" height="190" rx="14" fill="#ddd2c0"/>
    <rect x="48" y="88" width="96" height="58" fill="#b39a7b" stroke="#6f5d49" stroke-width="4"/>
    <rect x="152" y="78" width="104" height="68" fill="#9f876a" stroke="#625241" stroke-width="4"/>
    <rect x="266" y="96" width="74" height="50" fill="#93775e" stroke="#5e4f40" stroke-width="4"/>
    <polygon points="38,88 96,48 154,88" fill="#8a673f" stroke="#644924" stroke-width="4"/>
    <polygon points="142,78 204,34 266,78" fill="#775431" stroke="#5b4022" stroke-width="4"/>
    <rect x="188" y="26" width="34" height="20" fill="#d7c48e" stroke="#7f6c46" stroke-width="3"/>
    <circle cx="205" cy="36" r="6" fill="#8d2030"/>
    <path d="M0 162 L74 156 L158 164 L242 158 L324 166 L400 160 L400 190 L0 190 Z" fill="#8f7757"/>
    <text x="18" y="222" fill="#3f3328" font-family="Arial, sans-serif" font-size="13">Granary House marks belong on plaques, capstones, and vent housings, not full-wall paint.</text>
    <text x="18" y="244" fill="#695544" font-family="Arial, sans-serif" font-size="11">Stored food remains the visual priority. Heraldry stays secondary and countable.</text>
    <rect x="18" y="266" width="22" height="22" fill="#d7c48e"/>
    <rect x="46" y="266" width="22" height="22" fill="#8d2030"/>
    <rect x="74" y="266" width="22" height="22" fill="#93775e"/>
  </g>

  <g transform="translate(84 606)">
    <rect width="400" height="190" rx="14" fill="#ddd2c0"/>
    <rect x="54" y="90" width="82" height="56" fill="#b79d7b" stroke="#6f5d49" stroke-width="4"/>
    <rect x="154" y="80" width="96" height="66" fill="#a89173" stroke="#675845" stroke-width="4"/>
    <rect x="264" y="96" width="66" height="50" fill="#90745d" stroke="#5e4f40" stroke-width="4"/>
    <polygon points="44,90 96,54 148,90" fill="#8a663f" stroke="#644924" stroke-width="4"/>
    <polygon points="144,80 202,42 260,80" fill="#7d5c38" stroke="#624723" stroke-width="4"/>
    <rect x="72" y="118" width="46" height="8" fill="#8d2030"/>
    <rect x="176" y="108" width="52" height="8" fill="#305e86"/>
    <rect x="282" y="122" width="30" height="8" fill="#5b6c2a"/>
    <path d="M0 162 L68 156 L152 164 L238 158 L322 166 L400 160 L400 190 L0 190 Z" fill="#8f7757"/>
    <text x="18" y="222" fill="#3f3328" font-family="Arial, sans-serif" font-size="13">Housing overlays should work like livery bands, shutters, and porch markers.</text>
    <text x="18" y="244" fill="#695544" font-family="Arial, sans-serif" font-size="11">They must not turn a peasant block into a command structure or shrine silhouette.</text>
    <rect x="18" y="266" width="22" height="22" fill="#8d2030"/>
    <rect x="46" y="266" width="22" height="22" fill="#305e86"/>
    <rect x="74" y="266" width="22" height="22" fill="#5b6c2a"/>
  </g>

  <g transform="translate(600 606)">
    <rect width="400" height="190" rx="14" fill="#ddd2c0"/>
    <circle cx="118" cy="110" r="48" fill="#b9a188" stroke="#6f5d49" stroke-width="4"/>
    <circle cx="118" cy="110" r="24" fill="#6d7f90"/>
    <rect x="188" y="82" width="120" height="20" fill="#a58e71" stroke="#675845" stroke-width="4"/>
    <rect x="228" y="46" width="42" height="36" fill="#8b7357" stroke="#5d4f40" stroke-width="4"/>
    <polygon points="220,46 249,18 278,46" fill="#7c5d39" stroke="#604322" stroke-width="4"/>
    <rect x="246" y="20" width="10" height="16" fill="#d7c48e"/>
    <path d="M0 162 L62 156 L146 164 L236 158 L320 166 L400 160 L400 190 L0 190 Z" fill="#8f7757"/>
    <text x="18" y="222" fill="#3f3328" font-family="Arial, sans-serif" font-size="13">Wells can carry House identity through capstones, bucket rails, and basin signs only.</text>
    <text x="18" y="244" fill="#695544" font-family="Arial, sans-serif" font-size="11">The water read must stay cleaner and calmer than the heraldic read.</text>
    <rect x="18" y="266" width="22" height="22" fill="#6d7f90"/>
    <rect x="46" y="266" width="22" height="22" fill="#d7c48e"/>
    <rect x="74" y="266" width="22" height="22" fill="#8b7357"/>
  </g>

  <g transform="translate(1116 606)">
    <rect width="400" height="190" rx="14" fill="#ddd2c0"/>
    <rect x="26" y="118" width="344" height="18" fill="#8f7758"/>
    <rect x="50" y="58" width="22" height="60" fill="#8b7357" stroke="#5d4f40" stroke-width="4"/>
    <rect x="160" y="48" width="22" height="70" fill="#8b7357" stroke="#5d4f40" stroke-width="4"/>
    <rect x="272" y="58" width="22" height="60" fill="#8b7357" stroke="#5d4f40" stroke-width="4"/>
    <rect x="42" y="36" width="38" height="24" fill="#8d2030"/>
    <rect x="152" y="24" width="38" height="24" fill="#305e86"/>
    <rect x="264" y="36" width="38" height="24" fill="#5b6c2a"/>
    <path d="M0 162 L60 156 L150 164 L236 158 L330 166 L400 160 L400 190 L0 190 Z" fill="#8f7757"/>
    <text x="18" y="222" fill="#3f3328" font-family="Arial, sans-serif" font-size="13">Dock markers can differentiate Houses through signal patterns without muddying crossing logic.</text>
    <text x="18" y="244" fill="#695544" font-family="Arial, sans-serif" font-size="11">Keep the landing, ramps, and mooring read stronger than the trim accents.</text>
    <rect x="18" y="266" width="22" height="22" fill="#8d2030"/>
    <rect x="46" y="266" width="22" height="22" fill="#305e86"/>
    <rect x="74" y="266" width="22" height="22" fill="#5b6c2a"/>
  </g>

  <text x="64" y="996" fill="#6a5845" font-family="Arial, sans-serif" font-size="15">Use this sheet to keep House identity additive. Support structures should still be recognizable by purpose first, then dynasty ownership, then faith overlay if present.</text>
</svg>
