<svg xmlns="http://www.w3.org/2000/svg" width="1600" height="1040" viewBox="0 0 1600 1040">
  <rect width="1600" height="1040" fill="#ece0cb"/>
  <rect x="28" y="28" width="1544" height="984" rx="24" fill="#f7f0e3" stroke="#372d22" stroke-width="3"/>
  <text x="64" y="84" fill="#2c241d" font-family="Georgia, serif" font-size="34">Bloodlines Housing Cluster And Courtyard Variants Sheet</text>
  <text x="64" y="116" fill="#6c5a48" font-family="Arial, sans-serif" font-size="18">Stage: first_pass_concept | Review: placeholder_only | Focus: population-support settlement massing from sparse cottages to dense service courts and recovery-state blocks</text>

  <g font-family="Arial, sans-serif" font-size="16" fill="#47392c">
    <text x="92" y="170">Cottage Cluster</text>
    <text x="612" y="170">Row Houses</text>
    <text x="1128" y="170">Courtyard Block</text>
    <text x="92" y="572">Service Court</text>
    <text x="612" y="572">Hill Terrace</text>
    <text x="1128" y="572">Recovery Block</text>
  </g>

  <g stroke="#b8a58d" stroke-width="2">
    <rect x="64" y="186" width="440" height="334" rx="18" fill="#fcf7ef"/>
    <rect x="580" y="186" width="440" height="334" rx="18" fill="#fcf7ef"/>
    <rect x="1096" y="186" width="440" height="334" rx="18" fill="#fcf7ef"/>
    <rect x="64" y="588" width="440" height="334" rx="18" fill="#fcf7ef"/>
    <rect x="580" y="588" width="440" height="334" rx="18" fill="#fcf7ef"/>
    <rect x="1096" y="588" width="440" height="334" rx="18" fill="#fcf7ef"/>
  </g>

  <g transform="translate(84 204)">
    <rect width="400" height="190" rx="14" fill="#ddd2c0"/>
    <rect x="46" y="104" width="74" height="42" fill="#b79d7b" stroke="#6f5d49" stroke-width="4"/>
    <rect x="132" y="92" width="82" height="54" fill="#a89173" stroke="#675845" stroke-width="4"/>
    <rect x="232" y="102" width="70" height="44" fill="#90745d" stroke="#5e4f40" stroke-width="4"/>
    <polygon points="38,104 84,72 128,104" fill="#8a663f" stroke="#644924" stroke-width="4"/>
    <polygon points="124,92 174,56 224,92" fill="#7d5c38" stroke="#624723" stroke-width="4"/>
    <polygon points="224,102 268,70 312,102" fill="#715230" stroke="#563b20" stroke-width="4"/>
    <path d="M0 162 L66 156 L152 164 L236 158 L324 166 L400 160 L400 190 L0 190 Z" fill="#8f7757"/>
    <text x="18" y="222" fill="#3f3328" font-family="Arial, sans-serif" font-size="13">Cottage clusters should read as early population footprint, not as random prop scatter.</text>
    <text x="18" y="244" fill="#695544" font-family="Arial, sans-serif" font-size="11">Keep each roof countable and the group visibly habitable.</text>
    <rect x="18" y="266" width="22" height="22" fill="#b79d7b"/>
    <rect x="46" y="266" width="22" height="22" fill="#8a663f"/>
    <rect x="74" y="266" width="22" height="22" fill="#90745d"/>
  </g>

  <g transform="translate(600 204)">
    <rect width="400" height="190" rx="14" fill="#ddd2c0"/>
    <rect x="48" y="90" width="78" height="56" fill="#b59c7c" stroke="#6f5d49" stroke-width="4"/>
    <rect x="126" y="90" width="78" height="56" fill="#a58e71" stroke="#675845" stroke-width="4"/>
    <rect x="204" y="90" width="78" height="56" fill="#967d63" stroke="#605141" stroke-width="4"/>
    <rect x="282" y="90" width="70" height="56" fill="#b79d7b" stroke="#6f5d49" stroke-width="4"/>
    <polygon points="38,90 86,50 136,90" fill="#86623d" stroke="#644924" stroke-width="4"/>
    <polygon points="116,90 166,50 214,90" fill="#7b5a36" stroke="#5d4122" stroke-width="4"/>
    <polygon points="194,90 242,50 292,90" fill="#6f502f" stroke="#553a20" stroke-width="4"/>
    <polygon points="272,90 320,50 362,90" fill="#8a673f" stroke="#644924" stroke-width="4"/>
    <path d="M0 162 L68 156 L154 164 L238 158 L322 166 L400 160 L400 190 L0 190 Z" fill="#8f7757"/>
    <text x="18" y="222" fill="#3f3328" font-family="Arial, sans-serif" font-size="13">Row housing should read through repeated roof rhythm and shared frontage.</text>
    <text x="18" y="244" fill="#695544" font-family="Arial, sans-serif" font-size="11">The pattern must stay readable from above without turning into one shapeless block.</text>
    <rect x="18" y="266" width="22" height="22" fill="#b59c7c"/>
    <rect x="46" y="266" width="22" height="22" fill="#6f502f"/>
    <rect x="74" y="266" width="22" height="22" fill="#8a673f"/>
  </g>

  <g transform="translate(1116 204)">
    <rect width="400" height="190" rx="14" fill="#ddd2c0"/>
    <rect x="56" y="78" width="288" height="68" fill="#c6b191" stroke="#7a674f" stroke-width="4"/>
    <rect x="146" y="98" width="108" height="48" fill="#f7f0e3" stroke="#7a674f" stroke-width="4"/>
    <polygon points="44,78 120,30 196,78" fill="#8a673f" stroke="#644924" stroke-width="4"/>
    <polygon points="190,78 272,30 356,78" fill="#785735" stroke="#5c4023" stroke-width="4"/>
    <rect x="182" y="110" width="36" height="36" fill="#6e5847"/>
    <path d="M0 162 L70 156 L156 164 L240 158 L328 166 L400 160 L400 190 L0 190 Z" fill="#8f7757"/>
    <text x="18" y="222" fill="#3f3328" font-family="Arial, sans-serif" font-size="13">Courtyard blocks should read as denser organized life, not command or faith compounds.</text>
    <text x="18" y="244" fill="#695544" font-family="Arial, sans-serif" font-size="11">The void space is a domestic court, not a ceremonial square.</text>
    <rect x="18" y="266" width="22" height="22" fill="#f7f0e3"/>
    <rect x="46" y="266" width="22" height="22" fill="#c6b191"/>
    <rect x="74" y="266" width="22" height="22" fill="#6e5847"/>
  </g>

  <g transform="translate(84 606)">
    <rect width="400" height="190" rx="14" fill="#ddd2c0"/>
    <rect x="52" y="88" width="286" height="58" fill="#b39a7b" stroke="#6f5d49" stroke-width="4"/>
    <rect x="98" y="104" width="196" height="42" fill="#e9deca" stroke="#7a674f" stroke-width="4"/>
    <rect x="112" y="120" width="48" height="26" fill="#a89173"/>
    <rect x="168" y="120" width="54" height="26" fill="#967d63"/>
    <rect x="230" y="120" width="44" height="26" fill="#b59c7c"/>
    <polygon points="42,88 114,42 188,88" fill="#8a673f" stroke="#644924" stroke-width="4"/>
    <polygon points="182,88 252,42 348,88" fill="#73522f" stroke="#563b20" stroke-width="4"/>
    <path d="M0 162 L64 156 L152 164 L238 158 L326 166 L400 160 L400 190 L0 190 Z" fill="#8f7757"/>
    <text x="18" y="222" fill="#3f3328" font-family="Arial, sans-serif" font-size="13">Service courts should support labor, storage, and domestic throughput beside denser housing.</text>
    <text x="18" y="244" fill="#695544" font-family="Arial, sans-serif" font-size="11">Keep them civic and occupied, not militarized.</text>
    <rect x="18" y="266" width="22" height="22" fill="#e9deca"/>
    <rect x="46" y="266" width="22" height="22" fill="#73522f"/>
    <rect x="74" y="266" width="22" height="22" fill="#967d63"/>
  </g>

  <g transform="translate(600 606)">
    <rect width="400" height="190" rx="14" fill="#ddd2c0"/>
    <rect x="54" y="114" width="294" height="18" fill="#8f7758"/>
    <rect x="72" y="96" width="94" height="36" fill="#b59c7c" stroke="#6f5d49" stroke-width="4"/>
    <rect x="176" y="82" width="88" height="50" fill="#a58e71" stroke="#675845" stroke-width="4"/>
    <rect x="272" y="68" width="64" height="64" fill="#93775e" stroke="#5e4f40" stroke-width="4"/>
    <polygon points="62,96 114,62 170,96" fill="#86623d" stroke="#644924" stroke-width="4"/>
    <polygon points="166,82 220,44 274,82" fill="#7b5a36" stroke="#5d4122" stroke-width="4"/>
    <polygon points="264,68 304,30 344,68" fill="#6f502f" stroke="#553a20" stroke-width="4"/>
    <path d="M0 162 L68 156 L154 164 L240 158 L326 166 L400 160 L400 190 L0 190 Z" fill="#8f7757"/>
    <text x="18" y="222" fill="#3f3328" font-family="Arial, sans-serif" font-size="13">Hill terraces should step clearly without turning into castle massing.</text>
    <text x="18" y="244" fill="#695544" font-family="Arial, sans-serif" font-size="11">The read is lived slope adaptation, not fortification.</text>
    <rect x="18" y="266" width="22" height="22" fill="#b59c7c"/>
    <rect x="46" y="266" width="22" height="22" fill="#6f502f"/>
    <rect x="74" y="266" width="22" height="22" fill="#93775e"/>
  </g>

  <g transform="translate(1116 606)">
    <rect width="400" height="190" rx="14" fill="#ddd2c0"/>
    <rect x="54" y="108" width="278" height="38" fill="#a89173" stroke="#6a5a47" stroke-width="4"/>
    <rect x="74" y="98" width="48" height="30" fill="#b79d7b"/>
    <rect x="134" y="88" width="58" height="40" fill="#967d63"/>
    <rect x="204" y="96" width="52" height="32" fill="#90745d"/>
    <rect x="266" y="84" width="50" height="44" fill="#b59c7c"/>
    <line x1="88" y1="64" x2="104" y2="86" stroke="#6f5d49" stroke-width="6"/>
    <line x1="238" y1="64" x2="222" y2="92" stroke="#6f5d49" stroke-width="6"/>
    <path d="M0 162 L70 156 L156 164 L240 158 L326 166 L400 160 L400 190 L0 190 Z" fill="#8f7757"/>
    <text x="18" y="222" fill="#3f3328" font-family="Arial, sans-serif" font-size="13">Recovery blocks should show repair and compression after damage without reading as ruins forever.</text>
    <text x="18" y="244" fill="#695544" font-family="Arial, sans-serif" font-size="11">They are unsettled housing, not abandoned wreckage.</text>
    <rect x="18" y="266" width="22" height="22" fill="#b79d7b"/>
    <rect x="46" y="266" width="22" height="22" fill="#6f5d49"/>
    <rect x="74" y="266" width="22" height="22" fill="#90745d"/>
  </g>

  <text x="64" y="996" fill="#6a5845" font-family="Arial, sans-serif" font-size="15">Use for population-support prompting and settlement-density planning. Housing variants should preserve class, density, and recovery-state reads without becoming clutter fields.</text>
</svg>
