<svg xmlns="http://www.w3.org/2000/svg" width="1600" height="1040" viewBox="0 0 1600 1040">
  <rect width="1600" height="1040" fill="#efe4cf"/>
  <rect x="28" y="28" width="1544" height="984" rx="24" fill="#f7f0e3" stroke="#372d22" stroke-width="3"/>
  <text x="64" y="84" fill="#2c241d" font-family="Georgia, serif" font-size="34">Bloodlines Fortification Kit Decomposition Sheet</text>
  <text x="64" y="116" fill="#6e5a46" font-family="Arial, sans-serif" font-size="18">Stage: first_pass_concept | Review: placeholder_only | Focus: modular wall language, breach accessories, and RTS-readable defensive pieces</text>

  <g font-family="Arial, sans-serif" font-size="16" fill="#47392c">
    <text x="92" y="170">Wall Straight And Corner</text>
    <text x="612" y="170">Wall End Cap And Height Break</text>
    <text x="1128" y="170">Gate Insert Module</text>
    <text x="92" y="572">Square Tower Variant</text>
    <text x="612" y="572">Round Tower Variant</text>
    <text x="1128" y="572">Rubble Blockers And Breach Debris</text>
  </g>

  <g stroke="#b8a58d" stroke-width="2">
    <rect x="64" y="186" width="440" height="334" rx="18" fill="#fcf7ef"/>
    <rect x="580" y="186" width="440" height="334" rx="18" fill="#fcf7ef"/>
    <rect x="1096" y="186" width="440" height="334" rx="18" fill="#fcf7ef"/>
    <rect x="64" y="588" width="440" height="334" rx="18" fill="#fcf7ef"/>
    <rect x="580" y="588" width="440" height="334" rx="18" fill="#fcf7ef"/>
    <rect x="1096" y="588" width="440" height="334" rx="18" fill="#fcf7ef"/>
  </g>

  <g transform="translate(84 204)">
    <rect width="400" height="190" rx="14" fill="#d7cec0"/>
    <rect x="26" y="102" width="184" height="44" fill="#8c7b67" stroke="#5a4d40" stroke-width="4"/>
    <rect x="188" y="28" width="44" height="118" fill="#8c7b67" stroke="#5a4d40" stroke-width="4"/>
    <rect x="40" y="86" width="18" height="16" fill="#8c7b67"/>
    <rect x="78" y="86" width="18" height="16" fill="#8c7b67"/>
    <rect x="116" y="86" width="18" height="16" fill="#8c7b67"/>
    <rect x="154" y="86" width="18" height="16" fill="#8c7b67"/>
    <rect x="204" y="42" width="12" height="16" fill="#8c7b67"/>
    <rect x="204" y="74" width="12" height="16" fill="#8c7b67"/>
    <rect x="204" y="106" width="12" height="16" fill="#8c7b67"/>
    <path d="M24 146 L118 138 L206 146 L232 124 L248 146 L400 146 L400 190 L0 190 L0 154" fill="#8f7757"/>
    <text x="18" y="222" fill="#3f3328" font-family="Arial, sans-serif" font-size="15">Core wall language should snap clearly in straight runs and corners.</text>
    <text x="18" y="246" fill="#695544" font-family="Arial, sans-serif" font-size="13">Keep parapets broad and corner geometry unmistakable at gameplay height.</text>
    <rect x="18" y="266" width="22" height="22" fill="#8c7b67"/>
    <rect x="46" y="266" width="22" height="22" fill="#d7cec0"/>
    <rect x="74" y="266" width="22" height="22" fill="#8f7757"/>
  </g>

  <g transform="translate(600 204)">
    <rect width="400" height="190" rx="14" fill="#d7cec0"/>
    <rect x="44" y="98" width="198" height="48" fill="#8c7b67" stroke="#5a4d40" stroke-width="4"/>
    <rect x="242" y="82" width="66" height="64" fill="#81715d" stroke="#5a4d40" stroke-width="4"/>
    <rect x="310" y="118" width="34" height="28" fill="#6b5f53" stroke="#5a4d40" stroke-width="4"/>
    <rect x="62" y="82" width="18" height="16" fill="#8c7b67"/>
    <rect x="104" y="82" width="18" height="16" fill="#8c7b67"/>
    <rect x="146" y="82" width="18" height="16" fill="#8c7b67"/>
    <rect x="188" y="82" width="18" height="16" fill="#8c7b67"/>
    <rect x="260" y="66" width="14" height="16" fill="#81715d"/>
    <rect x="284" y="66" width="14" height="16" fill="#81715d"/>
    <path d="M28 146 L100 140 L214 146 L258 136 L328 146 L400 140 L400 190 L0 190 L0 154" fill="#8f7757"/>
    <text x="18" y="222" fill="#3f3328" font-family="Arial, sans-serif" font-size="15">End caps and height breaks must close modules without looking decorative.</text>
    <text x="18" y="246" fill="#695544" font-family="Arial, sans-serif" font-size="13">Use them to finish lines, step walls, and mark local defensive hierarchy.</text>
    <rect x="18" y="266" width="22" height="22" fill="#8c7b67"/>
    <rect x="46" y="266" width="22" height="22" fill="#81715d"/>
    <rect x="74" y="266" width="22" height="22" fill="#6b5f53"/>
  </g>

  <g transform="translate(1116 204)">
    <rect width="400" height="190" rx="14" fill="#d7cec0"/>
    <rect x="34" y="90" width="116" height="56" fill="#8c7b67" stroke="#5a4d40" stroke-width="4"/>
    <rect x="250" y="90" width="116" height="56" fill="#8c7b67" stroke="#5a4d40" stroke-width="4"/>
    <rect x="148" y="68" width="104" height="78" fill="#81715d" stroke="#5a4d40" stroke-width="4"/>
    <rect x="180" y="96" width="40" height="50" fill="#4b3e33"/>
    <rect x="52" y="74" width="18" height="16" fill="#8c7b67"/>
    <rect x="90" y="74" width="18" height="16" fill="#8c7b67"/>
    <rect x="268" y="74" width="18" height="16" fill="#8c7b67"/>
    <rect x="306" y="74" width="18" height="16" fill="#8c7b67"/>
    <path d="M16 146 L96 140 L200 146 L308 138 L384 146 L400 190 L0 190 L0 154" fill="#8f7757"/>
    <text x="18" y="222" fill="#3f3328" font-family="Arial, sans-serif" font-size="15">Gate inserts need a heavy center read and clean attach points to side walls.</text>
    <text x="18" y="246" fill="#695544" font-family="Arial, sans-serif" font-size="13">The player should identify the passage seam before zooming in.</text>
    <rect x="18" y="266" width="22" height="22" fill="#81715d"/>
    <rect x="46" y="266" width="22" height="22" fill="#4b3e33"/>
    <rect x="74" y="266" width="22" height="22" fill="#8c7b67"/>
  </g>

  <g transform="translate(84 606)">
    <rect width="400" height="190" rx="14" fill="#d7cec0"/>
    <rect x="146" y="38" width="108" height="114" fill="#81715d" stroke="#5a4d40" stroke-width="4"/>
    <rect x="168" y="18" width="64" height="20" fill="#81715d"/>
    <rect x="166" y="64" width="20" height="18" fill="#4b3e33"/>
    <rect x="214" y="64" width="20" height="18" fill="#4b3e33"/>
    <rect x="166" y="104" width="20" height="18" fill="#4b3e33"/>
    <rect x="214" y="104" width="20" height="18" fill="#4b3e33"/>
    <rect x="44" y="108" width="102" height="38" fill="#8c7b67" stroke="#5a4d40" stroke-width="4"/>
    <rect x="254" y="108" width="102" height="38" fill="#8c7b67" stroke="#5a4d40" stroke-width="4"/>
    <path d="M18 146 L96 140 L174 146 L258 140 L348 146 L400 142 L400 190 L0 190 L0 154" fill="#8f7757"/>
    <text x="18" y="222" fill="#3f3328" font-family="Arial, sans-serif" font-size="15">Square towers are the blunt, practical fortification anchor.</text>
    <text x="18" y="246" fill="#695544" font-family="Arial, sans-serif" font-size="13">Use them where silhouette strength matters more than sculpted profile.</text>
    <rect x="18" y="266" width="22" height="22" fill="#81715d"/>
    <rect x="46" y="266" width="22" height="22" fill="#4b3e33"/>
    <rect x="74" y="266" width="22" height="22" fill="#8f7757"/>
  </g>

  <g transform="translate(600 606)">
    <rect width="400" height="190" rx="14" fill="#d7cec0"/>
    <circle cx="202" cy="92" r="60" fill="#81715d" stroke="#5a4d40" stroke-width="4"/>
    <rect x="172" y="20" width="60" height="16" fill="#81715d"/>
    <rect x="188" y="60" width="12" height="18" fill="#4b3e33"/>
    <rect x="204" y="60" width="12" height="18" fill="#4b3e33"/>
    <rect x="188" y="104" width="12" height="18" fill="#4b3e33"/>
    <rect x="204" y="104" width="12" height="18" fill="#4b3e33"/>
    <rect x="40" y="112" width="102" height="34" fill="#8c7b67" stroke="#5a4d40" stroke-width="4"/>
    <rect x="262" y="112" width="102" height="34" fill="#8c7b67" stroke="#5a4d40" stroke-width="4"/>
    <path d="M14 146 L98 140 L174 146 L248 140 L340 146 L400 140 L400 190 L0 190 L0 154" fill="#8f7757"/>
    <text x="18" y="222" fill="#3f3328" font-family="Arial, sans-serif" font-size="15">Round towers soften the profile but still need broad artillery-ready mass.</text>
    <text x="18" y="246" fill="#695544" font-family="Arial, sans-serif" font-size="13">Keep windows and top silhouette minimal so they read from active camera height.</text>
    <rect x="18" y="266" width="22" height="22" fill="#81715d"/>
    <rect x="46" y="266" width="22" height="22" fill="#4b3e33"/>
    <rect x="74" y="266" width="22" height="22" fill="#8c7b67"/>
  </g>

  <g transform="translate(1116 606)">
    <rect width="400" height="190" rx="14" fill="#d7cec0"/>
    <path d="M34 138 L84 110 L124 136 L168 102 L206 134 L242 112 L286 138 L332 118 L372 138 L386 190 L16 190 Z" fill="#6f5e4c"/>
    <path d="M72 126 L98 96 L120 122 L146 110 L174 130 L198 98 L228 130" fill="none" stroke="#8f7357" stroke-width="12" stroke-linecap="round"/>
    <rect x="120" y="144" width="62" height="18" fill="#7d6851"/>
    <rect x="214" y="146" width="54" height="16" fill="#7d6851"/>
    <circle cx="90" cy="152" r="10" fill="#7d6851"/>
    <circle cx="292" cy="150" r="12" fill="#7d6851"/>
    <text x="18" y="222" fill="#3f3328" font-family="Arial, sans-serif" font-size="15">Breach blockers should slow and shape pathing without becoming unreadable clutter.</text>
    <text x="18" y="246" fill="#695544" font-family="Arial, sans-serif" font-size="13">Debris needs a broad lane language: mounds, beams, stone chunks, and partial cover.</text>
    <rect x="18" y="266" width="22" height="22" fill="#6f5e4c"/>
    <rect x="46" y="266" width="22" height="22" fill="#8f7357"/>
    <rect x="74" y="266" width="22" height="22" fill="#7d6851"/>
  </g>

  <text x="64" y="996" fill="#6a5845" font-family="Arial, sans-serif" font-size="15">Use with: building manifest, map-and-terrain rules, and review tags for silhouette, scale, damage-state attachment, and modular snap logic. These remain kit-level concept placeholders for later blockout and prefab assembly.</text>
</svg>
